<svg width="25" height="24" viewBox="0 0 25 24" fill="none" xmlns="http://www.w3.org/2000/svg">
<path fill-rule="evenodd" clip-rule="evenodd" d="M20.9904 4.5C20.5756 4.5 20.2404 4.16475 20.2404 3.75C20.2404 3.33525 20.5756 3 20.9904 3C21.4051 3 21.7404 3.33525 21.7404 3.75C21.7404 4.16475 21.4051 4.5 20.9904 4.5ZM12.7404 21C7.77011 21 3.74036 16.971 3.74036 12C3.74036 7.02975 7.77011 3 12.7404 3C17.7106 3 21.7404 7.02975 21.7404 12C21.7404 16.971 17.7106 21 12.7404 21ZM20.9904 21C20.5756 21 20.2404 20.6647 20.2404 20.25C20.2404 19.8353 20.5756 19.5 20.9904 19.5C21.4051 19.5 21.7404 19.8353 21.7404 20.25C21.7404 20.6647 21.4051 21 20.9904 21ZM4.49036 21C4.07561 21 3.74036 20.6647 3.74036 20.25C3.74036 19.8353 4.07561 19.5 4.49036 19.5C4.90511 19.5 5.24036 19.8353 5.24036 20.25C5.24036 20.6647 4.90511 21 4.49036 21ZM4.49036 3C4.90511 3 5.24036 3.33525 5.24036 3.75C5.24036 4.16475 4.90511 4.5 4.49036 4.5C4.07561 4.5 3.74036 4.16475 3.74036 3.75C3.74036 3.33525 4.07561 3 4.49036 3ZM21.7404 0H3.74036C2.08361 0 0.740356 1.34325 0.740356 3V21C0.740356 22.6567 2.08361 24 3.74036 24H21.7404C23.3971 24 24.7404 22.6567 24.7404 21V3C24.7404 1.34325 23.3971 0 21.7404 0ZM12.7404 16.5C10.2556 16.5 8.24036 14.4847 8.24036 12C8.24036 9.51525 10.2556 7.5 12.7404 7.5C15.2251 7.5 17.2404 9.51525 17.2404 12C17.2404 14.4847 15.2251 16.5 12.7404 16.5ZM12.7404 4.5C8.59886 4.5 5.24036 7.8585 5.24036 12C5.24036 16.1423 8.59886 19.5 12.7404 19.5C16.8819 19.5 20.2404 16.1423 20.2404 12C20.2404 7.8585 16.8819 4.5 12.7404 4.5ZM12.7404 9C11.0836 9 9.74036 10.3433 9.74036 12C9.74036 13.6567 11.0836 15 12.7404 15C14.3971 15 15.7404 13.6567 15.7404 12C15.7404 10.3433 14.3971 9 12.7404 9Z" fill="#4888FF" fill-opacity="0.5"/>
</svg>
