<svg width="22" height="24" viewBox="0 0 22 24" fill="none" xmlns="http://www.w3.org/2000/svg">
<path d="M14.2177 18.6099C14.2177 17.3269 13.4097 16.5809 11.8607 15.2659C11.5107 14.9659 11.1327 14.6479 10.7427 14.2939C10.2977 14.7029 9.87467 15.0629 9.48667 15.3939C7.94067 16.6999 7.26367 17.3389 7.26367 18.6099C7.26367 19.5321 7.63 20.4165 8.28206 21.0686C8.93413 21.7206 9.81851 22.0869 10.7407 22.0869C11.6628 22.0869 12.5472 21.7206 13.1993 21.0686C13.8513 20.4165 14.2177 19.5321 14.2177 18.6099Z" fill="#4888FF" fill-opacity="0.5"/>
<path d="M15.1489 4.035C13.9489 3.016 12.7089 1.963 11.4549 0.71L10.7409 0L10.0409 0.711C7.7869 2.973 6.7209 6.447 6.2589 8.531C5.90438 7.98206 5.6413 7.37922 5.4799 6.746L5.0529 5.109L3.8199 6.266C1.6609 8.294 0.219899 10.305 0.219899 13.525C0.19914 15.8485 0.955457 18.1123 2.36869 19.9568C3.78192 21.8012 5.771 23.1205 8.0199 23.705C8.58497 23.8482 9.1604 23.9468 9.7409 24C8.48217 23.7654 7.345 23.0983 6.52602 22.1141C5.70705 21.1299 5.25778 19.8904 5.2559 18.61C5.2559 16.36 6.6129 15.21 8.1839 13.868C8.7449 13.391 9.3839 12.85 10.0289 12.201L10.7409 11.493L11.4489 12.201C12.0249 12.777 12.6009 13.265 13.1579 13.739C14.7339 15.076 16.2219 16.339 16.2219 18.61C16.2203 19.8853 15.7746 21.1203 14.9615 22.1028C14.1483 23.0853 13.0185 23.754 11.7659 23.994C14.3664 23.7417 16.7798 22.5298 18.5352 20.5946C20.2907 18.6594 21.2624 16.1398 21.2609 13.527C21.2609 9.225 18.4279 6.82 15.1489 4.035Z" fill="#4888FF" fill-opacity="0.5"/>
</svg>
