<svg width="25" height="22" viewBox="0 0 25 22" fill="none" xmlns="http://www.w3.org/2000/svg">
<path d="M18.7886 19.9873H16.1721V18.726H9.30888V19.9873H6.69232C6.29796 19.9873 5.97827 20.307 5.97827 20.7013C5.97827 21.0957 6.29796 21.4154 6.69232 21.4154H18.7887C19.1831 21.4154 19.5027 21.0957 19.5027 20.7013C19.5027 20.307 19.183 19.9873 18.7886 19.9873Z" fill="#4888FF" fill-opacity="0.5"/>
<path d="M0.740356 14.6536V16.5838C0.740356 16.9781 1.06004 17.2978 1.4544 17.2978H24.0263C24.4207 17.2978 24.7404 16.9781 24.7404 16.5838V14.6536H0.740356Z" fill="#4888FF" fill-opacity="0.5"/>
<path d="M24.0263 0.584595H1.4544C1.06004 0.584595 0.740356 0.904329 0.740356 1.29864V13.2254H24.7404V1.29864C24.7404 0.904329 24.4207 0.584595 24.0263 0.584595Z" fill="#4888FF" fill-opacity="0.5"/>
</svg>
