<svg width="25" height="24" viewBox="0 0 25 24" fill="none" xmlns="http://www.w3.org/2000/svg">
<path d="M24.586 13.0687L22.8224 10.2702C22.6827 10.0483 22.6355 9.78049 22.6909 9.52421L23.3911 6.29121C23.5002 5.78737 23.2087 5.28306 22.718 5.12557L19.5681 4.11542C19.3184 4.03532 19.1101 3.86056 18.9879 3.62864L17.4461 0.702102C17.2059 0.245869 16.6586 0.0467717 16.1813 0.241594L13.1188 1.49265C12.8761 1.59155 12.6043 1.59155 12.3615 1.49265L9.29955 0.24183C8.82226 0.047007 8.27489 0.246104 8.0345 0.702337L6.49274 3.6286C6.37048 3.86052 6.16219 4.03528 5.91255 4.11538L2.76268 5.12553C2.27163 5.28302 1.98041 5.78737 2.08959 6.29117L2.78947 9.52418C2.845 9.78045 2.7978 10.0483 2.65802 10.2701L0.894615 13.0687C0.619675 13.5049 0.721086 14.0784 1.1285 14.3944L3.74276 16.421C3.95006 16.5816 4.08608 16.8172 4.12162 17.077L4.56962 20.3544C4.63922 20.8652 5.08569 21.2396 5.60055 21.2196L8.90595 21.0916C9.16798 21.0815 9.42353 21.1745 9.61787 21.3505L12.0673 23.5731C12.4492 23.9194 13.0319 23.9194 13.4135 23.5731L15.8633 21.3505C16.0575 21.1742 16.3131 21.0813 16.5752 21.0916L19.8803 21.2196C20.3957 21.2396 20.8417 20.865 20.9115 20.3544L21.3595 17.077C21.3951 16.8172 21.531 16.5817 21.7381 16.421L24.3524 14.3944C24.7598 14.0784 24.8609 13.5049 24.586 13.0687ZM9.96516 15.9968L7.04615 13.958L8.24587 16.7385L7.44631 17.0835L5.60632 12.8201L6.44369 12.4585L9.41779 14.5526L8.18878 11.7055L8.98834 11.3602L10.8288 15.6239L9.96516 15.9968ZM11.739 15.231L9.89904 10.9675L13.0604 9.6028L13.3715 10.3242L11.0707 11.3171L11.4786 12.2621L13.6194 11.3381L13.9294 12.0566L11.7886 12.9803L12.2895 14.1407L14.6713 13.1128L14.9813 13.8312L11.739 15.231ZM18.9461 12.1207L16.7212 9.29935L17.2503 12.8522L16.3167 13.2551L13.4591 9.43108L14.34 9.05045L16.2469 11.7018L15.7623 8.43696L16.7865 7.99501L18.819 10.6506L18.188 7.39003L19.0547 7.01591L19.8592 11.7266L18.9461 12.1207Z" fill="#4888FF" fill-opacity="0.5"/>
</svg>
