<svg width="15" height="24" viewBox="0 0 15 24" fill="none" xmlns="http://www.w3.org/2000/svg">
<path d="M13.7097 0H1.77109C1.15877 0 0.663818 0.495781 0.663818 1.10727V22.8923C0.663818 23.5042 1.1592 24 1.77109 24H13.7097C14.3211 24 14.817 23.5042 14.817 22.8923V1.10727C14.8174 0.495386 14.3212 0 13.7097 0ZM6.51703 1.30677H8.96293C9.09077 1.30677 9.19386 1.4099 9.19386 1.5377C9.19386 1.6655 9.09077 1.76863 8.96293 1.76863H6.51703C6.39006 1.76863 6.2861 1.6655 6.2861 1.5377C6.2861 1.4099 6.39006 1.30677 6.51703 1.30677ZM9.21735 22.0302H6.26305C6.02081 22.0302 5.82424 21.834 5.82424 21.5918C5.82424 21.3496 6.02081 21.1534 6.26305 21.1534H9.21731C9.4595 21.1534 9.65523 21.3496 9.65523 21.5918C9.65528 21.8341 9.45998 22.0302 9.21735 22.0302ZM13.4331 19.446H2.04773V3.7535H13.4331V19.446Z" fill="#4888FF" fill-opacity="0.5"/>
</svg>
